<svg xmlns="http://www.w3.org/2000/svg" viewBox="0 0 18 17"><title>画板 1 副本</title><path d="M2,0H16a2,2,0,0,1,2,2V15a2,2,0,0,1-2,2H2a2,2,0,0,1-2-2V2A2,2,0,0,1,2,0Z" fill="#1193ff" fill-rule="evenodd"/><rect x="3" y="4" width="12" height="1" fill="#fff"/><rect x="3" y="8" width="12" height="1" fill="#fff"/><rect x="5" y="3" width="1" height="5" fill="#fff"/><rect x="12" y="3" width="1" height="5" fill="#fff"/><rect x="6" y="6" width="6" height="1" fill="#fff"/><rect x="6" y="11" width="6" height="1" fill="#fff"/><rect x="4" y="13" width="10" height="1" fill="#fff"/><rect x="6" y="9" width="1" height="1" fill="#fff"/><rect x="11" y="9" width="1" height="1" fill="#fff"/><rect x="12" y="10" width="2" height="1" fill="#fff"/><rect x="13" y="11" width="2" height="1" fill="#fff"/><rect x="4" y="10" width="2" height="1" fill="#fff"/><rect x="3" y="11" width="2" height="1" fill="#fff"/><rect x="9" y="10" width="1" height="3" fill="#fff"/></svg>