<svg xmlns="http://www.w3.org/2000/svg" viewBox="0 0 18 17"><title>画板 1 副本 26</title><g style="isolation:isolate"><path d="M2,0H16a2,2,0,0,1,2,2V15a2,2,0,0,1-2,2H2a2,2,0,0,1-2-2V2A2,2,0,0,1,2,0Z" fill="#2cc464" fill-rule="evenodd" style="mix-blend-mode:color-dodge"/><rect x="4" y="3" width="1" height="1" fill="#fff"/><rect x="5" y="4" width="1" height="1" fill="#fff"/><polygon points="6 11 6 8 6 7 3 7 3 8 5 8 5 14 6 14 6 13 7 13 7 11 6 11" fill="#fff"/><rect x="7" y="10" width="1" height="1" fill="#fff"/><polygon points="14 4 14 5 12 5 12 3 11 3 11 5 6 5 6 6 11 6 11 8 7 8 7 9 9 9 9 13 7 13 7 14 9 14 10 14 10 13 11 13 11 12 10 12 10 9 11 9 11 10 12 10 12 13 13 13 13 8 12 8 12 6 15 6 15 5 15 4 14 4" fill="#fff"/><rect x="13" y="3" width="1" height="1" fill="#fff"/><polygon points="14 14 15 14 15 11 14 11 14 13 13 13 13 14 14 14" fill="#fff"/></g></svg>