<svg xmlns="http://www.w3.org/2000/svg" viewBox="0 0 18 17"><title>画板 1</title><g style="isolation:isolate"><path d="M2,0H16a2,2,0,0,1,2,2V15a2,2,0,0,1-2,2H2a2,2,0,0,1-2-2V2A2,2,0,0,1,2,0Z" fill="#2cc464" fill-rule="evenodd" style="mix-blend-mode:color-dodge"/><path d="M13,10v1h1V6H11V5h1V4H8V3H7V4H6V5h4V6H6V5H5V7H4V8H5v2H8v1H9V10Zm0-3V9H10V7ZM6,9V7H9V9Z" fill="#fff"/><rect x="7" y="11" width="1" height="1" fill="#fff"/><rect x="5" y="12" width="2" height="1" fill="#fff"/><rect x="3" y="13" width="2" height="1" fill="#fff"/><polygon points="10 11 9 11 9 14 10 14 14 14 14 13 10 13 10 11" fill="#fff"/><rect x="14" y="11" width="1" height="2" fill="#fff"/></g></svg>