<svg xmlns="http://www.w3.org/2000/svg" viewBox="0 0 18 17"><title>画板 1 副本 2</title><path d="M2,0H16a2,2,0,0,1,2,2V15a2,2,0,0,1-2,2H2a2,2,0,0,1-2-2V2A2,2,0,0,1,2,0Z" fill="#ff9920" fill-rule="evenodd"/><rect x="4" y="3" width="1" height="1" fill="#fff"/><rect x="5" y="4" width="1" height="2" fill="#fff"/><rect x="3" y="13" width="1" height="1" fill="#fff"/><path d="M15,6V5H13V3H12V5H9V3H8V5H7V6H8V8H7V9H8v1H7v1H6V7H3V8H5v4H4v1H6v1h9V13H7V12H8V11H9V9h3v3h1V9h2V8H13V6ZM12,8H9V6h3Z" fill="#fff"/></svg>