<svg xmlns="http://www.w3.org/2000/svg" viewBox="0 0 18 17"><title>画板 1 副本 18</title><path d="M2,0H16a2,2,0,0,1,2,2V15a2,2,0,0,1-2,2H2a2,2,0,0,1-2-2V2A2,2,0,0,1,2,0Z" fill="#717bff" fill-rule="evenodd"/><polygon points="10 4 10 3 8 3 8 4 3 4 3 5 15 5 15 4 10 4" fill="#fff"/><path d="M13,7V6H5V8H3v2H4V9H7v1H8v1H9v1h2v1h2V12H12V11H10V10H9V9h5v1h1V8H13ZM6,8V7h6V8Z" fill="#fff"/><rect x="13" y="13" width="2" height="1" fill="#fff"/><rect x="12" y="10" width="1" height="1" fill="#fff"/><rect x="4" y="13" width="2" height="1" fill="#fff"/><polygon points="8 11 6 11 6 10 4 10 4 11 5 11 5 12 7 12 7 13 7 14 10 14 10 13 9 13 9 12 8 12 8 11" fill="#fff"/></svg>