<svg xmlns="http://www.w3.org/2000/svg" viewBox="0 0 18 17"><title>画板 16 副本</title><path d="M2,0H16a2,2,0,0,1,2,2V15a2,2,0,0,1-2,2H2a2,2,0,0,1-2-2V2A2,2,0,0,1,2,0Z" fill="#1193ff" fill-rule="evenodd"/><rect x="3" y="9" width="1" height="2" fill="#fff"/><polygon points="6 7 6 6 8 6 8 5 6 5 6 3 5 3 5 5 3 5 3 6 5 6 5 7 4 7 4 9 5 9 5 14 6 14 6 8 7 8 7 7 6 7" fill="#fff"/><rect x="7" y="8" width="1" height="1" fill="#fff"/><rect x="8" y="3" width="6" height="1" fill="#fff"/><polygon points="15 8 15 7 8 7 8 8 11 8 11 13 9 13 9 14 11 14 12 14 12 10 13 10 13 9 12 9 12 8 15 8" fill="#fff"/><rect x="7" y="12" width="1" height="1" fill="#fff"/><rect x="8" y="10" width="1" height="2" fill="#fff"/><rect x="9" y="9" width="1" height="1" fill="#fff"/><rect x="13" y="10" width="1" height="2" fill="#fff"/><rect x="14" y="12" width="1" height="1" fill="#fff"/></svg>